# xmcd CD database file
#
# Track frame offsets:
#	150
#	13523
#	32095
#	53468
#	87719
#	100867
#	125996
#	147572
#	168857
#	190685
#	217708
#	255880
#	278025
#	293770
#	308165
#	332317
#
# Disc length: 4596 seconds
#
# Revision: 0
# Processed by: cddbd v1.5.2PL0 Copyright (c) Steve Scherf et al.
# Submitted via: CDex 1.70beta2
#
DISCID=d611f210
DTITLE=Artistes divers - Salsa Latina
DYEAR=2009
DGENRE=Salsa
TTITLE0=Tito Puente|Ran kankan
TTITLE1=Sonora Carruseles|Ave maria lola
TTITLE2=Pedro Conga y su Orq. International|Eso me gusta
TTITLE3=Cesta All Stars|El quinto de beethoven
TTITLE4=Celia Cruz|Reina rumba
TTITLE5=Ray Barretto|Ay no
TTITLE6=Paulo FG|Pasta y tostones
TTITLE7=NG la Banda|Los sitios enteros
TTITLE8=Mambomania|Serial danger
TTITLE9=Charanga Habanera|El temba
TTITLE10=Manny Oquendo y Libre|Bailala pronto
TTITLE11=Candido Fabre y su Banda|El granny
TTITLE12=Ocho y Media|Yescarga 1
TTITLE13=Raul Planas|La revoltosa
TTITLE14=Afia Mala|Oser
TTITLE15=Papa Noel|Tomatito
EXTD=YEAR: 2009
EXTT0=
EXTT1=
EXTT2=
EXTT3=
EXTT4=
EXTT5=
EXTT6=
EXTT7=
EXTT8=
EXTT9=
EXTT10=
EXTT11=
EXTT12=
EXTT13=
EXTT14=
EXTT15=
PLAYORDER=
